<svg xmlns="http://www.w3.org/2000/svg" xmlns:xlink="http://www.w3.org/1999/xlink" viewBox="0 0 280 250" preserveAspectRatio="xMidYMid" style="display: block; shape-rendering: auto; background: transparent;" width="280" height="250"><style type="text/css">
  .ld-text text {
    text-anchor: middle;
    dominant-baseline: middle;
    font-size: 80px;
    opacity: 0;
    user-select: none;
    pointer-events: none;
  }
</style>
<g style="transform-origin:140px 125px;transform:scale(1)" class="ld-text">
<g transform="translate(140,125)">
  <g transform="scale(1.0000) translate(0,0)"><g class="path" style="opacity: 1; transform-origin: -62.32px 14.12px; transform: matrix3d(1, 0, 0, 0, 0, 1, 0, 0, 0, 0, 1, 0, 0, 0, 0, 1); animation: 1s linear -0.528s infinite normal forwards running animate-gg8rouz8r0t; transform-box: view-box;"><path d="M16.80 25.97L16.80 25.97Q16.80 37.97 24.56 41.81L24.56 41.81Q26.48 42.05 29.64 42.05Q32.80 42.05 36.32 40.85Q39.84 39.65 41.76 37.89L41.76 37.89Q45.84 34.13 46.88 31.41L46.88 31.41L47.28 30.21L48.88 30.85Q48.32 32.69 46.72 35.09Q45.12 37.49 43.08 39.17Q41.04 40.85 37.16 42.25Q33.28 43.65 28.56 43.65L28.56 43.65Q18.48 43.65 12.92 37.81Q7.36 31.97 7.36 21.33L7.36 21.33Q7.36 6.85 16.72-2.51Q26.08-11.87 41.28-11.87L41.28-11.87Q48.32-11.87 51.44-9.35Q54.56-6.83 54.56-1.47L54.56-1.47Q54.56 2.13 51.04 7.41L51.04 7.41Q47.84 12.53 47.84 15.41L47.84 15.41L46.08 15.41Q46.08 13.81 46.72 11.97Q47.36 10.13 47.84 9.33Q48.32 8.53 49.60 6.45L49.60 6.45Q52.72 1.73 52.72-1.31L52.72-1.31Q52.72-7.71 47.44-9.39L47.44-9.39Q44.96-10.19 42.24-10.19Q39.52-10.19 36.48-9.87L36.48-9.87Q33.68-8.99 31.16-7.59Q28.64-6.19 25.92-3.35Q23.20-0.51 21.28 3.25Q19.36 7.01 18.08 12.89Q16.80 18.77 16.80 25.97" style="fill: rgb(255, 255, 255);" transform="translate(-93.280,-18.424)"></path></g><g class="path" style="opacity: 1; transform-origin: -19.76px 12.78px; transform: matrix3d(1, 0, 0, 0, 0, 1, 0, 0, 0, 0, 1, 0, 0, 0, 0, 1); animation: 1s linear -0.396s infinite normal forwards running animate-gg8rouz8r0t; transform-box: view-box;"><path d="M84.48 37.57L84.48 37.57Q77.44 37.57 76.80 31.41L76.80 31.41Q73.28 37.57 67.92 37.57Q62.56 37.57 59.40 34.33Q56.24 31.09 56.24 25.25L56.24 25.25Q56.24 16.13 60.72 10.93Q65.20 5.73 72.32 5.73L72.32 5.73Q78.16 5.73 80.08 11.25L80.08 11.25Q80.48 8.85 80.96 6.45L80.96 6.45Q86.88 6.45 89.76 5.97L89.76 5.97L90.80 5.73L85.28 35.97Q87.68 35.73 89.28 33.73L89.28 33.73L90.48 34.69Q88.08 37.57 84.48 37.57 zM65.28 29.33Q65.28 32.93 66.20 34.33Q67.12 35.73 69.04 35.73Q70.96 35.73 72.96 33.65L72.96 33.65Q75.60 30.93 77.20 26.77L77.20 26.77Q77.44 25.73 78.12 21.77Q78.80 17.81 79.28 15.25L79.28 15.25Q79.04 12.21 77.60 9.97Q76.16 7.73 74 7.73L74 7.73Q70.08 7.73 67.68 14.73Q65.28 21.73 65.28 29.33L65.28 29.33" style="fill: rgb(255, 255, 255);" transform="translate(-93.280,-18.424)"></path></g><g class="path" style="opacity: 1; transform-origin: 16.16px 12.78px; transform: matrix3d(1, 0, 0, 0, 0, 1, 0, 0, 0, 0, 1, 0, 0, 0, 0, 1); animation: 1s linear -0.264s infinite normal forwards running animate-gg8rouz8r0t; transform-box: view-box;"><path d="M114.24 20.13Q112.56 18.45 112.56 16.05Q112.56 13.65 114.24 11.93Q115.92 10.21 118.32 10.21L118.32 10.21Q119.04 10.21 120.16 10.53L120.16 10.53Q118.64 7.73 114.48 7.73Q110.32 7.73 107.12 13.01Q103.92 18.29 103.92 28.69L103.92 28.69Q103.92 32.29 105.56 34.01Q107.20 35.73 109.68 35.73Q112.16 35.73 114.20 34.77Q116.24 33.81 117.44 32.49Q118.64 31.17 119.52 29.73L119.52 29.73Q121.12 27.09 121.12 26.37L121.12 26.37L122.56 27.01Q122.32 28.29 121.12 30.41Q119.92 32.53 118.48 33.89Q117.04 35.25 114.24 36.41Q111.44 37.57 108 37.57L108 37.57Q101.52 37.57 98.20 34.49Q94.88 31.41 94.88 26.05L94.88 26.05Q94.88 16.53 99.64 11.13Q104.40 5.73 112.56 5.73L112.56 5.73Q118.08 5.73 121.04 8.53Q124 11.33 124 15.89L124 15.89Q124 18.77 122.28 20.29Q120.56 21.81 118.24 21.81Q115.92 21.81 114.24 20.13" style="fill: rgb(255, 255, 255);" transform="translate(-93.280,-18.424)"></path></g><g class="path" style="opacity: 1; transform-origin: 51.28px 8.63px; transform: matrix3d(1, 0, 0, 0, 0, 1, 0, 0, 0, 0, 1, 0, 0, 0, 0, 1); animation: 1s linear -0.132s infinite normal forwards running animate-gg8rouz8r0t; transform-box: view-box;"><path d="M157.36 35.97L157.36 35.97Q159.28 35.97 161.36 33.73L161.36 33.73L162.56 34.69Q162 35.81 160.08 36.69Q158.16 37.57 155.84 37.57L155.84 37.57Q148.56 37.57 148.56 31.01L148.56 31.01Q148.56 28.21 150 21.01Q151.44 13.81 151.44 11.57L151.44 11.57Q151.44 8.13 148.16 8.13L148.16 8.13Q145.44 8.13 142.92 11.81Q140.40 15.49 138.80 21.81L138.80 21.81L136.16 36.85L126.56 36.85L135.44-13.39Q133.04-13.15 131.44-11.15L131.44-11.15L130.24-12.11Q132.64-14.99 136.28-14.99Q139.92-14.99 141.92-13.15Q143.92-11.31 143.92-7.95L143.92-7.95Q143.92-7.31 143.76-5.87L143.76-5.87L140.40 13.09Q143.68 5.73 150.56 5.73L150.56 5.73Q155.28 5.73 157.92 8.41Q160.56 11.09 160.56 15.81L160.56 15.81Q160.56 18.29 159.04 25.37Q157.52 32.45 157.36 35.97" style="fill: rgb(255, 255, 255);" transform="translate(-93.280,-18.424)"></path></g><g class="path" style="opacity: 1; transform-origin: 86.8px 12.78px; transform: matrix3d(1, 0, 0, 0, 0, 1, 0, 0, 0, 0, 1, 0, 0, 0, 0, 1); animation: 1s linear 0s infinite normal forwards running animate-gg8rouz8r0t; transform-box: view-box;"><path d="M183.60 5.73L183.60 5.73Q193.76 5.73 193.76 13.81L193.76 13.81Q193.76 18.85 189 21.45Q184.24 24.05 175.44 24.13L175.44 24.13Q175.28 27.01 175.28 28.69L175.28 28.69Q175.28 32.29 176.92 34.01Q178.56 35.73 181.04 35.73Q183.52 35.73 185.56 34.77Q187.60 33.81 188.80 32.49Q190 31.17 190.88 29.73L190.88 29.73Q192.48 27.09 192.48 26.37L192.48 26.37L193.92 27.01Q193.68 28.29 192.48 30.41Q191.28 32.53 189.84 33.89Q188.40 35.25 185.60 36.41Q182.80 37.57 179.36 37.57L179.36 37.57Q172.88 37.57 169.56 34.49Q166.24 31.41 166.24 26.05L166.24 26.05Q166.24 16.53 170.96 11.13Q175.68 5.73 183.60 5.73 zM191.76 13.81Q191.76 11.17 190.20 9.45Q188.64 7.73 185.56 7.73Q182.48 7.73 179.56 11.41Q176.64 15.09 175.68 22.29L175.68 22.29Q191.76 22.21 191.76 13.81L191.76 13.81" style="fill: rgb(255, 255, 255);" transform="translate(-93.280,-18.424)"></path></g></g><text dy="0.35em" fill="#ffffff" font-family="Sail" font-size="80">Cache</text>
</g>
</g><style type="text/css">@keyframes animate-gg8rouz8r0t { 0.00% {transform: translate(0.00px,0.00px) rotate(0.00deg) scale(1.00, 1.00) skew(0deg, 0.00deg) ;opacity: 1.00;}2.00% {animation-timing-function: cubic-bezier(0.20,0.39,0.50,0.97);transform: translate(0.00px,-1.08px) rotate(0.00deg) ;}36.00% {animation-timing-function: cubic-bezier(0.50,0.03,0.80,0.61);transform: translate(0.00px,-10.00px) rotate(0.00deg) ;}72.00% {transform: translate(0.00px,0.00px) rotate(0.00deg) ;}74.00% {animation-timing-function: cubic-bezier(0.23,0.43,0.48,0.91);transform: translate(0.00px,0.00px) rotate(0.00deg) scale(1.00, 0.95) ;}86.00% {animation-timing-function: cubic-bezier(0.52,0.09,0.77,0.57);transform: translate(0.00px,0.00px) rotate(0.00deg) scale(1.00, 0.80) ;}100.00% {animation-timing-function: cubic-bezier(0.52,0.09,0.77,0.57);transform: translate(0.00px,0.00px) rotate(0.00deg) scale(1.00, 1.00) ;} }</style><!-- [ldio] generated by https://loading.io --></svg>